/* XPM */
static char *result[] = {
/* columns rows colors chars-per-pixel */
"32 32 194 2 ",
"   c #361616",
".  c #371616",
"X  c #371716",
"o  c #371717",
"O  c #381717",
"+  c #381818",
"@  c #391818",
"#  c #3A1919",
"$  c #2E2929",
"%  c #2F2A2A",
"&  c #471E1D",
"*  c #481D1D",
"=  c #4A1E1D",
"-  c #491E1E",
";  c #491F1E",
":  c #4A1E1E",
">  c #4B1E1E",
",  c #4A1F1E",
"<  c #4B1F1E",
"1  c #4A1F1F",
"2  c #4B1F1F",
"3  c #4A201F",
"4  c #4B201F",
"5  c #4B2120",
"6  c #573C27",
"7  c #583C27",
"8  c #583D27",
"9  c #593D27",
"0  c #5B3C26",
"q  c #5A3D26",
"w  c #5A3C27",
"e  c #5A3D27",
"r  c #563C28",
"t  c #573C28",
"y  c #573C29",
"u  c #593C28",
"i  c #583D28",
"p  c #593D28",
"a  c #593C29",
"s  c #583D29",
"d  c #593D29",
"f  c #5A3C28",
"g  c #5B3C28",
"h  c #5A3D28",
"j  c #5A3C29",
"k  c #5B3C29",
"l  c #5A3D29",
"z  c #593E28",
"x  c #593E29",
"c  c #593C2A",
"v  c #583D2A",
"b  c #593D2A",
"n  c #5A3C2A",
"m  c #694930",
"M  c #694931",
"N  c #694932",
"B  c #694933",
"V  c #795536",
"C  c #795637",
"Z  c #775539",
"A  c #77553A",
"S  c #77563C",
"D  c #795538",
"F  c #795439",
"G  c #785539",
"H  c #795539",
"J  c #7A5538",
"K  c #7A5539",
"L  c #785639",
"P  c #795639",
"I  c #7A5638",
"U  c #7A5639",
"Y  c #78543A",
"T  c #78553A",
"R  c #79553A",
"E  c #78553B",
"W  c #79553B",
"Q  c #7A553A",
"!  c #7A553B",
"~  c #78563A",
"^  c #79563A",
"/  c #78573A",
"(  c #78563B",
")  c #79563B",
"_  c #78573B",
"`  c #7A563A",
"'  c #7A573A",
"]  c #7A563B",
"[  c #79553C",
"{  c #78563C",
"}  c #6B6C6B",
"|  c #6D6B6D",
" . c #6E6B6C",
".. c #6A6D6C",
"X. c #696D6E",
"o. c #6B6C6E",
"O. c #6D6C6C",
"+. c #6C6C6D",
"@. c #6C6C6E",
"#. c #875F41",
"$. c #866040",
"%. c #866041",
"&. c #876041",
"*. c #876042",
"=. c #946B49",
"-. c #966A49",
";. c #966B49",
":. c #96694A",
">. c #956B4A",
",. c #976B4A",
"<. c #976B4B",
"1. c #936C49",
"2. c #956D49",
"3. c #966C48",
"4. c #976C48",
"5. c #966C49",
"6. c #976C49",
"7. c #966D49",
"8. c #956D4A",
"9. c #956C4B",
"0. c #956D4B",
"q. c #966C4A",
"w. c #976C4A",
"e. c #966D4A",
"r. c #976D4A",
"t. c #966C4B",
"y. c #976C4B",
"u. c #966D4B",
"i. c #976B4C",
"p. c #946D4C",
"a. c #956D4D",
"s. c #966C4C",
"d. c #976C4C",
"f. c #986B48",
"g. c #986B4A",
"h. c #986B4B",
"j. c #986C48",
"k. c #986C49",
"l. c #986C4A",
"z. c #986C4B",
"x. c #BA7373",
"c. c #BB7474",
"v. c #B2825A",
"b. c #B4815A",
"n. c #B6825B",
"m. c #B6835B",
"M. c #B7845C",
"N. c #B7865C",
"B. c #B7865D",
"V. c #B6865E",
"C. c #B7865E",
"Z. c #B8845B",
"A. c #B8855B",
"S. c #B9855B",
"D. c #BA845B",
"F. c #BA855B",
"G. c #BB855B",
"H. c #B8855C",
"J. c #B9855C",
"K. c #B8855D",
"L. c #B9855D",
"P. c #BA855C",
"I. c #BB855C",
"U. c #BA845D",
"Y. c #BA855D",
"T. c #B8865C",
"R. c #B9865C",
"E. c #B8865D",
"W. c #B9865D",
"Q. c #BA865D",
"!. c #B8855E",
"~. c #B9855E",
"^. c #BA855E",
"/. c #B8865E",
"(. c #B9865E",
"). c #BA865E",
"_. c #868786",
"`. c #888685",
"'. c #858789",
"]. c #868788",
"[. c #878788",
"{. c #878689",
"}. c #888788",
"|. c #868889",
" X c #888888",
".X c #DF8A8A",
"XX c #E08B8B",
"oX c #EA9595",
"OX c #EB9696",
"+X c #ED9797",
"@X c #ED9898",
"#X c #EE9898",
"$X c #EE9999",
"%X c #EF9999",
/* pixels */
"w.w.w.8.L.L.t.g.P ^ w.q.^ Q w.w.) W e.w.P L s j ^ ~ J.J.^ P L.L.",
"w.s.t.8.K.K.t.w.^ ^ 7.q.^ K w.w.( T w.q.D H 9 u H H L.J.H H J.K.",
"R ~ J.P.k.6.R P p p E.F.}.'.) R w.t.(.~.6.w.^ L K.H.5.4.w.w.z l ",
"R T L.F.6.6.K H f p !.V._.`.W R 6.8.W.L.j.,.^ J !.!.s.g.y.y.d d ",
"J.E.w.i.f h p 9 ^.~.U T t.p.L.L.L.L.L.L.] ~ q.<.^ ^ f p L.L.^ ^ ",
"L.J.y.<.h p p e Y.L.P E t.9.L.L.L.L.L.L.Q P q.,.P ^ p p L.L.U ^ ",
"t.0.@.X.E./.Q ^ t.t.8 d [ ~ t.q.P.!.S ( E.F.s.6.F.F.!.L.y.t.5.w.",
"w.l.o.} !.L.( P 6.y.h d P W w.6.J.~.R ^ ~.N.s.3.K.J.Y.J.w.w.h.w.",
"w.w.J J q.w.J.J.i p y.6.d v ~ ~ 6.t.p p R P @. .^ P y.q.p p W ^ ",
"w.6.' ^ w.w.Q.).a p 8.5.d s ^ ^ l.u.9 p ) R O.| ^ ~ l.y.h p H ^ ",
"^ C p s ^ P 6.6.^ ^ ^ ~ , > < < : : : : 1.e.v s p p Q Q p p ^.Y.",
"T P h b P P l.w.T ~ ^ R 1 : : : : : : : =.y.b p p p H D p p /.T.",
"t.t.W U p p K ^ |.].& - OX+X+X+X+X+X+X+X5 3 L.I.W E w.w.E R k.y.",
"5.6.K { p h K V ].{.* : +X%X%X%X%X%X%X%X2 : M./.K J h.w.Q Q a.q.",
"^ P d p ~.L.L.T.1 ; oX#XXXXX@ o o o XXXX#X#XX X L.H.s c q.w.W ^ ",
"^ P a w !.L.L.E.: : OX%XXXXXo       XXXX%X%Xo   L.H.s c w.w.W ^ ",
"w.5.D.G.( ( 3 > @X$Xc.x.+ . r t F Z . . .XXX#X$X. . K L - : Y ^ ",
"w.6.L.C.^ ^ 1 : #X%Xc.x.O   7 i ^ ~     .XXX%X%X    Q W : : A R ",
"&.*.t.s.p i ; : #X%X#   n.~.K R k.q.P.W..   #X%X    : : .XXX    ",
"&.#.y.d.h p ; : #X%X#   m.~.^ ^ w.2.Y.L.X   #X%X.   : : .XXX    ",
"m N y.k.= : +X%X% $     -.w.J.J.(.L.L.L.O   .XXXXXXXXXXXx.x.    ",
"B M ,.g.= : +X%X% $     :.t.K.J.G.J.P.J.O   .XXXXXXXXXXXx.x.    ",
"r.7.K Q H.A.4 2     v.Z.! ^ t.t.+.+.w.t.>.;.. o o o o o . . 6 7 ",
"w.t.( D K.L.3 :     b.S.K J w.6.+...q.t.t.t.                y v ",
"&.%.L.H.w.w.w.6.a p e.6.L.~.^ P i i J.~.] P ^ H p p Q R K.L.L.L.",
"&.$.U.J.w.w.t.w.d p e.6.Y.~.^ ~ s p J.~.` ^ ^ R p p K ^ L.L.L.L.",
"U G t.w.R W p d ) Q W T y.w.w.6.! P t.t.!.L.b 9 Q K J.S.y.t.t.t.",
"( L 2.t.` ^ j u ] ^ ^ H w.k.w.w.^ H t.t.W.K.p d ^ R ~.L.y.y.k.k.",
"w.y.n p d p T.E.) ^ x p ( H f f W.L.K.~.Q ^ t.y.p p Q ^ p h ^ ~ ",
"w.w.a p p p R.E.R ^ p p ( H p d B.L.L.K.] ~ t.w.p p Q ^ p p R ^ ",
"w.e.) I R.R.t.k.w.9.P ~ |.]._ ^ f.t.t.t.g q U J z.l.l.q.^ / 0 w ",
"w.6.^ R J.J.t.w.w.6.^ ~  X[.) ^ l.w.w.w.k p ^ R t.w.w.k.^ ^ k p "
};
