/* XPM */
static char *_6499dc1180c4d2fbfdd74c3a90078a86o0clstFjkmuIvfe[] = {
/* columns rows colors chars-per-pixel */
"32 32 90 1 ",
"  c #020101",
". c #0A0604",
"X c #0D0906",
"o c gray3",
"O c #110B07",
"+ c #140E09",
"@ c #17100B",
"# c #1C130D",
"$ c #21170F",
"% c #241A11",
"& c #2A1D14",
"* c #2D2116",
"= c #322217",
"- c #342419",
"; c #38271A",
": c #37281B",
"> c #3B291D",
", c #432E1E",
"< c #45301E",
"1 c #432F20",
"2 c #453221",
"3 c #4A3322",
"4 c #4E3827",
"5 c #503725",
"6 c #553A26",
"7 c #593C26",
"8 c #553B29",
"9 c #593D29",
"0 c #5C412D",
"q c #63452E",
"w c #67482F",
"e c #644630",
"r c #674932",
"t c #6B4C34",
"y c #704F37",
"u c #745237",
"i c #795537",
"p c #755339",
"a c #795539",
"s c #78553A",
"d c #7A553A",
"f c #78563A",
"g c #79563A",
"h c #7B5A3F",
"j c #7E5A3D",
"k c #7F5B3E",
"l c #5E5F5E",
"z c #666463",
"x c #676867",
"c c #6B6C6E",
"v c #787A7C",
"b c #815B3C",
"n c #825C3F",
"m c #835E42",
"M c #865F41",
"N c #855F42",
"B c #876041",
"V c #8B6344",
"C c #8D6445",
"Z c #8E6747",
"A c #8E6648",
"S c #916747",
"D c #906846",
"F c #916847",
"G c #936B4A",
"H c #966B49",
"J c #966B4B",
"K c #976C49",
"L c #976C4A",
"P c #976B4C",
"I c #966C4C",
"U c #986B4A",
"Y c #986C49",
"T c #986C4A",
"R c #9A6F4C",
"E c #A57754",
"W c #AB7A53",
"Q c #AB7B54",
"! c #AE7E57",
"~ c #B17D55",
"^ c #B18159",
"/ c #B6835A",
"( c #BA855B",
") c #B9855C",
"_ c #BA855E",
"` c #B8865E",
"' c #818283",
"] c #888686",
"[ c #878788",
"{ c #888888",
/* pixels */
"LLLL))ILsfYLfsYLssLLss99uu^/ss()",
"LILL)`LLssYYsiFFuuFFui6<9qARus))",
"ss))LLss66!WvvtrNBEWZV030030uG99",
"ss))LLsu<,mjlz90uyZJby2->>-10k89",
")`LP796<y6*&22rtrrtu62>&#$##0Aps",
"))LL76<=,*#@#&>,>:>1&&&$##@#0Zss",
"LIcc^G<%#+ooXX###+XX##OO#%*>3uZL",
"LLcxZt&@X..  oXoXo   o X+#*40jLL",
"LLsq0>%+   .            o+-8,6ss",
"LLi02&#X                X#3u67ss",
"si6,-#+o                .+,t69))",
"is6,=#+X                 #<w69))",
"LLsq&@XXo               X%qbssYY",
"LLit=$+Xoo              O&ebupIY",
"sf65B6=#.              .#3;<ZJgg",
"ss63s4=#. .             #1;,ZPgg",
"YY~N>$#Oo              .+=3q69ss",
"LJJt&@Oo                +>6w67ss",
"Bbu1@Xo                 +=rBLLLL",
"Vbp3@XX                 +:uZLLLL",
"tqp3%+@o               .#>jQ[[is",
"ewj0*$$Oo.     .       o+%0V']ss",
"YYp0u4>%+Xo.   .o       X#-03779",
"LUsuLZp8=#+.. ..o .     X@%2<898",
"BB))IZCs-%$OOOo...Oo   ..o#>Z^))",
"BB)/LLFZ<--$##X+O+%%X..o.X$>Z^))",
"ssYLss79t8=####%&=42>*OX@#4ujPPI",
"ssLLss99pq3=*&&:,6jjBt&#=>pZALYY",
"LL8099(`ku,-;;&=VQ!/susu,,rs99ss",
"LL7799(`ss6309,3!)))sfLF66ss99ss",
"LLff(`LLLLss''spJIRP77ssLLYRss77",
"LLss()LLLLss{{ssYLLJ77ssLLYYfs99"
};
