/* XPM */
static char *result[] = {
/* columns rows colors chars-per-pixel */
"32 32 149 2 ",
"   c #583D27",
".  c #593D27",
"X  c #5B3C26",
"o  c #5A3D26",
"O  c #5A3C27",
"+  c #5A3D27",
"@  c #593C28",
"#  c #583D28",
"$  c #593D28",
"%  c #593C29",
"&  c #583D29",
"*  c #593D29",
"=  c #5A3C28",
"-  c #5B3C28",
";  c #5A3D28",
":  c #5A3C29",
">  c #5B3C29",
",  c #5A3D29",
"<  c #593E28",
"1  c #593E29",
"2  c #593C2A",
"3  c #583D2A",
"4  c #593D2A",
"5  c #5A3C2A",
"6  c #694930",
"7  c #694931",
"8  c #694932",
"9  c #694933",
"0  c #795536",
"q  c #795637",
"w  c #77563C",
"e  c #795538",
"r  c #785539",
"t  c #795539",
"y  c #7A5538",
"u  c #7A5539",
"i  c #785638",
"p  c #795638",
"a  c #785639",
"s  c #795639",
"d  c #7A5638",
"f  c #7A5639",
"g  c #78553A",
"h  c #79553A",
"j  c #78553B",
"k  c #79553B",
"l  c #7A553A",
"z  c #7A543B",
"x  c #7A553B",
"c  c #78563A",
"v  c #79563A",
"b  c #78573A",
"n  c #78563B",
"m  c #79563B",
"M  c #78573B",
"N  c #7A563A",
"B  c #7A573A",
"V  c #7A563B",
"C  c #79553C",
"Z  c #78563C",
"A  c #6B6C6B",
"S  c #6D6B6D",
"D  c #6E6B6C",
"F  c #6A6D6C",
"G  c #696D6E",
"H  c #6B6C6E",
"J  c #6D6C6C",
"K  c #6C6C6D",
"L  c #6C6C6E",
"P  c #875F41",
"I  c #866040",
"U  c #866041",
"Y  c #876041",
"T  c #876042",
"R  c #966B4A",
"E  c #976B4A",
"W  c #976B4B",
"Q  c #956C49",
"!  c #956D49",
"~  c #966C48",
"^  c #976C48",
"/  c #966D48",
"(  c #966C49",
")  c #976C49",
"_  c #966D49",
"`  c #956D4A",
"'  c #956C4B",
"]  c #956D4B",
"[  c #966C4A",
"{  c #976C4A",
"}  c #966D4A",
"|  c #976D4A",
" . c #966C4B",
".. c #976C4B",
"X. c #966D4B",
"o. c #976B4C",
"O. c #946D4C",
"+. c #956D4D",
"@. c #966C4C",
"#. c #976C4C",
"$. c #986B48",
"%. c #986B4A",
"&. c #986B4B",
"*. c #986C48",
"=. c #986C49",
"-. c #986C4A",
";. c #986C4B",
":. c #B7855D",
">. c #B7865C",
",. c #B7865D",
"<. c #B6865E",
"1. c #B7865E",
"2. c #B9855B",
"3. c #BA845B",
"4. c #BA855B",
"5. c #BB855B",
"6. c #B8855C",
"7. c #B9855C",
"8. c #B8855D",
"9. c #B9855D",
"0. c #BA855C",
"q. c #BB855C",
"w. c #BA845D",
"e. c #BA855D",
"r. c #B8865C",
"t. c #B9865C",
"y. c #B8865D",
"u. c #B9865D",
"i. c #BA865D",
"p. c #B8855E",
"a. c #B9855E",
"s. c #BA845E",
"d. c #BA855E",
"f. c #B8865E",
"g. c #B9865E",
"h. c #BA865E",
"j. c #BB865E",
"k. c #BA865F",
"l. c #878686",
"z. c #868786",
"x. c #888685",
"c. c #888686",
"v. c #858789",
"b. c #868788",
"n. c #878788",
"m. c #878689",
"M. c #888788",
"N. c #868889",
"B. c #888888",
/* pixels */
"{ { { ` 9.9. .%.s v { [ v l { { m k } { s a & : v c 7.7.v s 9.9.",
"{ @. .` 8.8. .{ v v _ [ v u { { n g { [ e t . @ t t 9.7.t t 7.8.",
"h c 7.0.=.) h s $ $ y.4.M.v.m h {  .g.a.) { v a 8.6.( ^ { { < , ",
"h g 9.4.) ) u t = $ p.<.z.x.k h ) ` u.9.*.E v y p.p.@.%.....* * ",
"7.y.{ o.= ; $ . d.a.f g  .O.9.9.9.9.9.9.V c [ W v v = $ 9.9.v v ",
"9.7...W ; $ $ + e.9.s j  .' 9.9.9.9.9.9.l s [ E s v $ $ 9.9.f v ",
" .] L G y.f.l v  . .  * C c  .[ 0.p.w n y.4.@.) 4.4.p.9... .( { ",
"{ -.H A p.9.n s ) ..; * s k { ) 7.a.h v a.>.@.~ 8.7.e.7.{ { &.{ ",
"{ { y y [ { 7.7.# $ ..) * 3 c c )  .$ $ h s L D v s ..[ $ $ k v ",
"{ ) B v { { i.h.% $ ` ( * & v v -.X.. $ m h J S v c -...; $ t v ",
"v q $ & v s ) ) v v v c  .] a.u.= # l v ` } 3 & $ $ l l $ $ d.e.",
"g s ; 4 s s -.{ g c v h {  .9.8.& & m v [ ..4 $ $ $ t e $ $ f.r.",
" . .k f $ $ u v N.b.3 + v g 9.9.g.k.T Y 1.a.h.q.k j { { j h =...",
"( ) u Z $ ; u 0 b.m.& + g e 9.9.9.t.T Y e.7.8.f.u y &.{ l l +.[ ",
"v s * $ a.9.9.r.m m { ( 9.a.v s { } ; $ ;.{ { [ 9.6.& 2 [ { k v ",
"v s % O p.9.9.y.h v { ( 9.a.v c ) ` ; ; #. .{ R 9.6.& 2 { { k v ",
"{ ( 3.5.n n {  .{ { v v f k & & l c { ( + # v k  .' u a % 5 k v ",
"{ ) 9.1.v v =.[ [ [ v v v s $ # v c { Q , * t z ) ( l k = $ n h ",
"Y T  .@.$ # t v * $ f.9.9.a.u h =.[ 0.u.l p @ 5 v v { ) { { { [ ",
"Y P ..#.; $ y p * $ y.9.9.a.v v { ! e.9.V i # : v v -.{ { { { { ",
"6 8 ..=.v m s.8.8.f.f y -.{ 7.7.g.9.9.9.7.4.{ } { [ a.t.n.b.y t ",
"9 7 E %.v v 2.9.9.9.y v &. .8.7.5.7.0.7.9.:.#.) ( [ 7.7.l.c.c n ",
"| _ u l u.t.9.8.{ X.y.7.x v  . .K K {  . .{ V j j.i.@./ - + # $ ",
"{  .n e 8.9.9.4. ...9.2.u y { ) K F [  . . .v s t.t.{ ) * 3 3 3 ",
"Y U 9.6.{ { { ) % $ } ) 9.a.v s # # 7.a.V s v t $ $ l h 8.9.9.9.",
"Y I w.7.{ {  .{ * $ } ) e.a.v c & $ 7.a.N v v h $ $ u v 9.9.9.9.",
"f r  .{ h k $ * m l k g ..{ { ) x s  . .p.9.4 . l u 7.2... . . .",
"n a !  .N v : @ V v v t { =.{ { v t  . .u.8.$ * v h a.9.....=.=.",
"{ ..5 $ * $ r.y.m v 1 $ n t = = u.9.8.a.l v  ...$ $ l v $ ; v c ",
"{ { % $ $ $ t.y.h v $ $ n t $ * ,.9.9.8.V c  .{ $ $ l v $ $ h v ",
"{ } m d t.t. .=.{ ' s c N.b.M v $. . . .- o f y ;.-.-.[ v b X O ",
"{ ) v h 7.7. .{ { ) v c B.n.m v -.{ { { > $ v h  .{ { =.v v > $ "
};
