/* XPM */
static char *result[] = {
/* columns rows colors chars-per-pixel */
"32 32 139 2 ",
"   c black",
".  c #3B2200",
"X  c #593D27",
"o  c #5B3C26",
"O  c #5A3D26",
"+  c #5A3C27",
"@  c #5A3D27",
"#  c #593C28",
"$  c #583D28",
"%  c #593D28",
"&  c #593C29",
"*  c #583D29",
"=  c #593D29",
"-  c #5A3C28",
";  c #5B3C28",
":  c #5A3D28",
">  c #5A3C29",
",  c #5B3C29",
"<  c #5A3D29",
"1  c #593E28",
"2  c #593E29",
"3  c #593C2A",
"4  c #583D2A",
"5  c #593D2A",
"6  c #5A3C2A",
"7  c #694930",
"8  c #694931",
"9  c #694932",
"0  c #694933",
"q  c #795536",
"w  c #795637",
"e  c #795538",
"r  c #785539",
"t  c #795539",
"y  c #7A5538",
"u  c #7A5539",
"i  c #795638",
"p  c #785639",
"a  c #795639",
"s  c #7A5638",
"d  c #7A5639",
"f  c #78553A",
"g  c #79553A",
"h  c #78553B",
"j  c #79553B",
"k  c #7A553A",
"l  c #7A543B",
"z  c #78563A",
"x  c #79563A",
"c  c #78573A",
"v  c #78563B",
"b  c #79563B",
"n  c #78573B",
"m  c #7A563A",
"M  c #7A573A",
"N  c #7A563B",
"B  c #78563C",
"V  c #6B6C6B",
"C  c #6D6B6D",
"Z  c #6E6B6C",
"A  c #696D6E",
"S  c #6B6C6E",
"D  c #6C6C6E",
"F  c #875F41",
"G  c #866040",
"H  c #866041",
"J  c #876041",
"K  c #876042",
"L  c #966B4A",
"P  c #976B4A",
"I  c #976B4B",
"U  c #956D49",
"Y  c #966C48",
"T  c #976C48",
"R  c #966D48",
"E  c #966C49",
"W  c #976C49",
"Q  c #966D49",
"!  c #956D4A",
"~  c #956C4B",
"^  c #956D4B",
"/  c #966C4A",
"(  c #976C4A",
")  c #966D4A",
"_  c #976D4A",
"`  c #966C4B",
"'  c #976C4B",
"]  c #966D4B",
"[  c #976B4C",
"{  c #956D4D",
"}  c #966C4C",
"|  c #976C4C",
" . c #986B48",
".. c #986B4A",
"X. c #986B4B",
"o. c #986C48",
"O. c #986C49",
"+. c #986C4A",
"@. c #986C4B",
"#. c #FFF12B",
"$. c #B6865E",
"%. c #B7865E",
"&. c #B9855B",
"*. c #BA845B",
"=. c #BA855B",
"-. c #BB855B",
";. c #B8855C",
":. c #B9855C",
">. c #B8855D",
",. c #B9855D",
"<. c #BA855C",
"1. c #BB855C",
"2. c #BA845D",
"3. c #BA855D",
"4. c #B8865C",
"5. c #B9865C",
"6. c #B8865D",
"7. c #B9865D",
"8. c #BA865D",
"9. c #B8855E",
"0. c #B9855E",
"q. c #BA845E",
"w. c #BA855E",
"e. c #B8865E",
"r. c #B9865E",
"t. c #BA865E",
"y. c #BB865E",
"u. c #878686",
"i. c #868786",
"p. c #888685",
"a. c #888686",
"s. c #858789",
"d. c #868788",
"f. c #878788",
"g. c #888788",
"h. c #868889",
"j. c #888888",
"k. c #FFCD94",
"l. c white",
/* pixels */
"( ( ( ! ,.,.` ..a x ( / x k ( ( b j ) ( a p * > x z :.:.x a ,.,.",
"( } ` ! >.>.` ( x x Q / x u ( ( v f ( / e t X # t t ,.:.t t :.>.",
"g z :.<.O.W g a % % 6.=.g.s.b g ( ` r.0.W ( x p >.;.E T ( ( 1 < ",
"g f ,.=.W W u t - % 9.$.i.p.j g W ! 7.,.o.P x y 9.9.} ..' ' = = ",
":.6.( [ -                         ,.,.,.    / I x x - % ,.,.x x ",
",.:.' I   . . . . . . . . . . . .       .   / P a x % % ,.,.d x ",
"` ^ D A 6.  . . .   k.. . . . . . . . . .   } W =.=.9.,.' ` E ( ",
"( +.S V 9.,.  . .   k.k.. . . . . . . . .   } Y >.:.3.:.( ( X.( ",
"( ( y y / ( :.  .   k.. . . . . . . . . .   D Z x a ' / % % j x ",
"( W M x ( (   . . . . . . . . . . . . . . .   C x z +.' : % t x ",
"x w % * x   . . . . . . . . . l.l.l.l.. . .   * % % k k % % w.3.",
"f a : 5   . . . . . . . . . l.l.l.l.l.. . .   % % % t e % % e.4.",
"` ` j             . . . . . l.l.l.l.  . l.  t.1.j h ( ( h g O.' ",
"E W u B % : u q   . . . . . l.l.l.l.  . l.  >.e.u y X.( k k { / ",
"x a = % 0.,.,.  . . . . . . . l.l.l.  l.      / ,.;.* 3 / ( j x ",
"x a & + 9.,.  . . . . . k.k.k.l.l.l.l.k.k.  ( L ,.;.* 3 ( ( j x ",
"( E *.-.v   . . . . . . k.k.k.k.k.k.k.k.k.  x j ` ~ u p & 6 j x ",
"( W ,.%.                  k.k.k.k.k.k.k.  = t l W E k j - % v g ",
"J K ` } % $ t x = % e.  k.                i # 6 x x ( W ( ( ( / ",
"J F ' | : % y i = %   k.    . k.k.k.        $ > x x +.( ( ( ( ( ",
"7 9 ' O.x b q.>.>.  k.  l.l.  k.k.k.  l.l.  ( ) ( / 0.5.f.d.y t ",
"0 8 P ..x x &.,.,.    l.l.l.l.  k.k.  l.l.  | W E / :.:.u.a.z v ",
"_ Q u k 7.5.,.>.( ]   l.l.l.l.    k.  l.  ( N h y.8.} R ; @ $ % ",
"( ` v e >.,.,.=.` ' ,.  l.l.    .         ` x a 5.5.( W = 4 4 4 ",
"J H ,.;.( ( ( W & % ) W     .       :.0.N a x t % % k g >.,.,.,.",
"J G 2.:.( ( ` ( = % ) W     .   #.#.    m x x g % % u x ,.,.,.,.",
"d r ` ( g j % = b k j     #.#.    #.#.l.    5 X k u :.&.' ` ` ` ",
"v p U ` m x > # N x x   #.#.l.#.#.    #.#.#.  = x g 0.,.' ' O.O.",
"( ' 6 % = % 4.6.b x 2   #.l.#.#.#.#.#.  #.#.#.  % % k x % : x z ",
"( ( & % % % 5.6.g x %                           % % k x % % g x ",
"( ) b s 5.5.` O.( ~ a z h.d.n x  .` ` ` ; O d y @.+.+./ x c o + ",
"( W x g :.:.` ( ( W x z j.f.b x +.( ( ( , % x g ` ( ( O.x x , % "
};
