/* XPM */
static char *_bb9ee10b3fc4273bb8a816b7bcbe9eblX6Neg7xVJJdWBds[] = {
/* columns rows colors chars-per-pixel */
"32 32 38 1 ",
"  c #2C1E13",
". c #2D1E13",
"X c #2C1E14",
"o c #2D1E14",
"O c #2C1E15",
"+ c #342418",
"@ c #3C2A1B",
"# c #3C2B1B",
"$ c #3B2B1E",
"% c #3C2B1C",
"& c #3D2B1C",
"* c #3C2A1D",
"= c #3C2B1E",
"- c #373536",
"; c #353636",
": c #343637",
"> c #442F20",
", c #433020",
"< c #443020",
"1 c #443021",
"2 c #4B3525",
"3 c #4B3624",
"4 c #4B3626",
"5 c #4C3624",
"6 c #4C3625",
"7 c #4C3626",
"8 c #5B432F",
"9 c #5D422D",
"0 c #5D432D",
"q c #5D432E",
"w c #5C432F",
"e c #5D432F",
"r c #5E432F",
"t c #444343",
"y c #434443",
"u c #444345",
"i c #434444",
"p c #434445",
/* pixels */
"6664qq43#%44%*66**46#*..$#rq#*qq",
"6444qq34#$44*#66#*64*#..%#qq##rr",
"**qq55*#  80up**440056*#8r4444X.",
"**qq55*#.or8tt**64r066*#084444  ",
"rr66.oo.rr$*44rr00rr*$46*#. qq#*",
"r066..X.00##44r0r008*#44#* Xqq*#",
"64::00**44XX##440r$#004408rr6466",
"44::80**44o #$44r0$$r0448rqq6666",
"46##4600oX44  $%46oo**::*#66.X$#",
"55**660rXX44 .##66.o*#::$*64oo%#",
"*#.o%%55%%##43rr..*#66XX.X**Xo08",
"**oo##66*%%*4408Xo**66 o.X*#Xo8r",
"44*%.o**ppoo$*8rqq>>rrrq**64$*66",
"36*$oo*$puoo*#rrqq110088**64**46",
"#%oX00r8%%6408%%44oX56330rXX46**",
"%%o.800r*%64rr%%44oo4444rroo66**",
"33r0#*4464%%*#Xo##66.o%*64*%oo*%",
"64r0$#3444%*#$X.**64o.%*54**oo%*",
"<<44..#*.o8r0r#*4400*#oo*%666664",
"<<44oX#*XX8rr8#*54r0$$oo#%666666",
"++66*#0088%%660r000r00666400uy*#",
"++66*#rr0r#*66rr00000r664400uy%*",
"66**qqq8340r**44:-6644#%0044oooo",
"66*#qqqq46rr##66::6644%%0r44XXoo",
">,qq4665oo44rr%%XX00%*##oo**0r0r",
">,qq5546oo448r#*Xor8%*$$XX*$00r0",
"#*66$#..%%%%4665*$440roX**0r6444",
"*#44**. **$$6666$*44rroo$*006654",
"44oo.X80%%oX##oo000r*%66oo*%.o$$",
"64oo.Xr8*%oX%$oo0000%%66oo*%. *#",
"64%%r04464%#py%%4444o.#*4464%%..",
"65%*004466%*up#*6444oo%*4666%$oo"
};
